<svg xmlns="http://www.w3.org/2000/svg" xmlns:xlink="http://www.w3.org/1999/xlink" width="26" height="26" viewBox="0 0 26 26">
    <defs>
        <circle id="b" cx="10.12" cy="9.92" r="9.24"/>
        <filter id="a" width="175.8%" height="175.8%" x="-37.9%" y="-27.1%" filterUnits="objectBoundingBox">
            <feOffset dy="2" in="SourceAlpha" result="shadowOffsetOuter1"/>
            <feGaussianBlur in="shadowOffsetOuter1" result="shadowBlurOuter1" stdDeviation="2"/>
            <feColorMatrix in="shadowBlurOuter1" values="0 0 0 0 0 0 0 0 0 0 0 0 0 0 0 0 0 0 0.5 0"/>
        </filter>
    </defs>
    <g fill="none" fill-rule="evenodd">
        <g transform="translate(3 1)">
            <use fill="#000" filter="url(#a)" xlink:href="#b"/>
            <use fill="#FFF" xlink:href="#b"/>
        </g>
        <path fill="#4A90E2" fill-rule="nonzero" d="M17.525 7.522H8.813c-.348 0-.632-.377-.632-.84 0-.463.284-.84.632-.84h8.713c.349 0 .632.377.632.84-.002.465-.283.84-.633.84zm0 4.468H8.813c-.348 0-.632-.377-.632-.84 0-.463.284-.84.632-.84h8.713c.349 0 .632.377.632.84-.002.463-.283.84-.633.84zm0 4.466H8.813c-.348 0-.632-.377-.632-.84 0-.463.284-.84.632-.84h8.713c.349 0 .632.377.632.84-.002.465-.283.84-.633.84z"/>
        <path fill="#E9E9E9" fill-rule="nonzero" d="M13.12 2.276a8.604 8.604 0 0 1 6.119 2.533 8.61 8.61 0 0 1 1.855 2.752c.452 1.068.68 2.2.68 3.369a8.604 8.604 0 0 1-2.533 6.119 8.61 8.61 0 0 1-2.752 1.854c-1.068.453-2.2.68-3.369.68a8.604 8.604 0 0 1-6.119-2.532 8.61 8.61 0 0 1-1.855-2.752 8.588 8.588 0 0 1-.68-3.37 8.604 8.604 0 0 1 2.533-6.118 8.61 8.61 0 0 1 2.752-1.855 8.588 8.588 0 0 1 3.369-.68zm0-1.416C7.558.86 3.05 5.368 3.05 10.93S7.558 21 13.12 21s10.07-4.508 10.07-10.07S18.682.86 13.12.86z"/>
    </g>
</svg>
